<?xml version="1.0" encoding="UTF-8"?>
<svg id="Layer_1" data-name="Layer 1" xmlns="http://www.w3.org/2000/svg" viewBox="0 0 454 91.7">
  <defs>
    <style>
      .cls-1 {
        font-family: OpenSans-Italic, 'Open Sans';
        font-size: 14px;
      }

      .cls-2 {
        fill: #0a7ec2;
      }

      .cls-3 {
        font-family: OpenSans-BoldItalic, 'Open Sans';
        font-size: 72px;
      }
    </style>
  </defs>
  <ellipse class="cls-2" cx="226" cy="72.7" rx="226" ry="15"/>
  <text class="cls-3" transform="translate(19.61 70.46) rotate(-5.86)"><tspan x="0" y="0">F</tspan></text>
  <text class="cls-3" transform="translate(57.23 66.82) rotate(-3.81)"><tspan x="0" y="0">l</tspan></text>
  <text class="cls-3" transform="translate(78.29 65.33) rotate(-2.64)"><tspan x="0" y="0">o</tspan></text>
  <text class="cls-3" transform="translate(120.13 63.43) rotate(-1.58)"><tspan x="0" y="0">o</tspan></text>
  <text class="cls-3" transform="translate(162.05 62.28) rotate(-.76)"><tspan x="0" y="0">d</tspan></text>
  <text class="cls-3" transform="translate(204.69 61.73) rotate(-.07)"><tspan x="0" y="0">S</tspan></text>
  <text class="cls-3" transform="translate(242.69 61.66) rotate(.62)"><tspan x="0" y="0">u</tspan></text>
  <text class="cls-3" transform="translate(286.03 62.16) rotate(1.3)"><tspan x="0" y="0">r</tspan></text>
  <text class="cls-3" transform="translate(316.14 62.79) rotate(2.11)"><tspan x="0" y="0">a</tspan></text>
  <text class="cls-3" transform="translate(358.63 64.3) rotate(3.47)"><tspan x="0" y="0">n</tspan></text>
  <text class="cls-3" transform="translate(401.54 66.92) rotate(5.75)"><tspan x="0" y="0">t</tspan></text>
  <text class="cls-1" transform="translate(87 79.7)"><tspan x="0" y="0">Federal and Private flood insurance online</tspan></text>
</svg>