<?xml version="1.0" encoding="UTF-8"?>
<svg xmlns="http://www.w3.org/2000/svg" viewBox="0 0 705.14 97.38">
  <defs>
    <style>
      .cls-1, .cls-2 {
        font-size: 40px;
      }

      .cls-3 {
        fill: #137fc3;
      }

      .cls-4 {
        fill: #157fc3;
      }

      .cls-5 {
        font-family: OpenSans-Bold, 'Open Sans';
      }

      .cls-5, .cls-6 {
        fill: #010101;
      }

      .cls-2 {
        font-family: OpenSans-SemiBold, 'Open Sans';
      }

      .cls-7 {
        font-size: 32px;
      }

      .cls-8 {
        fill: #010202;
      }

      .cls-9 {
        fill: #231f20;
      }
    </style>
  </defs>
  <g id="Layer_2" data-name="Layer 2">
    <path class="cls-8" d="M54.95,54.44c1.01-.34,2-.75,2.99-1.17L45.59,5.71l-3.99,1.1,12.42,47.85c.31-.07,.62-.15,.93-.22Z"/>
    <path class="cls-4" d="M99.58,22.85c-2.83-1.74-6.36-2.35-9.86-1.41-4.82,1.29-8.23,5.17-9.1,9.69-3.02-3.34-7.82-4.9-12.54-3.64-4.03,1.08-7.08,3.97-8.47,7.53-3.01-2.53-7.2-3.59-11.34-2.48s-6.93,3.84-8.37,7.28c-2.97-2.27-6.96-3.17-10.89-2.12-3.65,.98-6.5,3.45-8.04,6.56-2.89-1.92-6.59-2.64-10.24-1.66-4.22,1.13-7.37,4.25-8.66,8.05C-1.18,33.43,16.69,14.24,43,7.19s49.82,.17,56.58,15.66Z"/>
  </g>
  <g id="Layer_1" data-name="Layer 1">
    <g>
      <path class="cls-6" d="M350.57,54.19l2.75,1.43c4.52,2.37,8.8,4.61,13.87,5.15,4.24,.47,7.24-.26,11.51-1.53v-26.98l-20.39-15.92-15.52,11.89v23.34c2.97,.64,5.7,1.57,7.78,2.62Zm2.52-18.43h10.04v12.03h-10.04v-12.03Z"/>
      <path class="cls-6" d="M284.64,56.37c1.97,1.04,3.83,2.03,5.79,2.81,9.84,3.98,16.55,1.3,25.68-3.26,4.3-2.14,7.81-3.61,13.15-4.77,3.65-.81,8.08-.61,12.22,.15V23.89L310.88,0l-16.14,12.43v-3.92h-7.62v9.92l-6.9,5.33v30.4c1.59,.74,3.06,1.5,4.42,2.21Zm18.41-28.03h15.92v19.44h-15.92V28.34h0Z"/>
      <path class="cls-6" d="M272.3,51.18c2.47,.67,4.63,1.5,6.62,2.37V28.47l-15.88-12.45-20.72,15.92v25.87c2.71-1.41,5.45-2.78,8.39-4.17,5.49-2.61,15.07-4.25,21.6-2.46Zm-14.6-15.42h10.03v12.03h-10.03v-12.03Z"/>
      <path class="cls-3" d="M366.76,72.78c-6.49-.71-13.22-4.4-18.95-7.33-5.16-2.62-11.93-3.79-17.73-2.52-4.91,1.09-8.44,2.75-12.86,4.95-9.37,4.67-17.11,6.79-27.63,2.89-5.6-2.07-9.71-4.7-17.26-7.17-7.04-2.28-13.66-.91-20.55,2.01-3.3,1.41-6.31,3.08-9.43,4.71v6.27c2.9-1.53,4.47-2.23,8.4-4.27,5.2-2.67,13.21-5.05,19.05-3.79,5.91,1.26,11.21,4.47,16.75,6.73,9.98,4.08,18.9,4.04,28.45-.46,4.3-2.03,9.31-4.49,13.96-5.7,5.61-1.48,12-1.16,17.16,1.42,5.29,2.64,11.55,6.21,17.4,7.38,4.33,.88,10.56,.66,15.21-.68v-5.67c-4.09,1.15-7.61,1.69-11.97,1.23Z"/>
      <path class="cls-3" d="M270.02,78.71c5.91,1.26,11.25,4.68,16.82,6.84,8.55,3.3,19.79,3.15,29.04-.91,4.36-1.91,8.63-4.13,13.28-5.36,5.61-1.46,11.99-1.15,17.16,1.42,5.29,2.64,11.54,6.22,17.4,7.39,4.25,.84,10.34,.66,14.97-.63v-5.63c-3.9,1.12-7.05,1.77-11.31,1.31-6.5-.69-13.5-4.42-19.27-7.34-5.14-2.62-12.2-3.62-17.99-2.33-4.92,1.08-8.29,2.34-12.68,4.61-7.93,4.09-18.08,6.37-27.62,2.88-5.6-2.04-9.97-5.4-17.64-7.5-5.84-1.6-12.6-1.14-20.18,2.35-3.34,1.55-6.48,3.16-9.67,4.85v6.28c3.07-1.62,4.6-2.32,8.64-4.39,5.19-2.69,13.2-5.08,19.04-3.83Z"/>
      <path class="cls-3" d="M378.7,61.38c-4.08,1.19-7.32,1.91-11.72,1.44-6.5-.71-11.58-3.89-17.32-6.8-5.15-2.62-14.15-4.15-19.94-2.87-4.9,1.08-8.23,2.41-12.67,4.6-9.36,4.67-16.68,7.65-27.37,3.33-5.53-2.24-10.2-5.84-17.88-7.93-5.84-1.59-14.84-.2-20.19,2.35-3.17,1.51-6.21,3.02-9.26,4.63v6.27c2.81-1.48,4.38-2.18,8.22-4.19,5.2-2.68,13.21-5.05,19.05-3.79,5.9,1.26,11.68,4.88,17.2,7.14,9.98,4.09,17.43,4.2,26.95-.3,4.31-2.03,10.33-5.05,14.99-6.27,5.62-1.48,12.36-1.18,17.53,1.39,5.28,2.64,11.69,6.2,17.54,7.37,4.38,.89,10.2,.68,14.86-.71v-5.64h.01Z"/>
    </g>
    <text class="cls-5" transform="translate(388.31 58.56) scale(.88 1)"><tspan class="cls-1"><tspan x="0" y="0">NATIONAL FLOOD</tspan></tspan><tspan class="cls-7"><tspan x="0" y="29.28">INSURANCE PROGRAM</tspan></tspan></text>
    <text class="cls-2" transform="translate(0 86.5)"><tspan class="cls-3" x="0" y="0">Flood</tspan><tspan class="cls-9" x="106.19" y="0">Surant</tspan></text>
  </g>
</svg>